<svg xmlns="http://www.w3.org/2000/svg" width="151" height="43" fill="none" xmlns:v="https://vecta.io/nano"><path d="M46.21 19.138c0-.973.782-1.553 2.229-1.553 1.723 0 2.762.905 2.944 2.273h5.675c-.389-3.973-3.272-6.861-8.441-6.861-5.241 0-8.154 2.816-8.154 6.246 0 7.396 10.916 5.051 10.916 8.301 0 .901-.824 1.621-2.407 1.621-1.685 0-2.943-.939-3.087-2.356h-6.061c.287 3.898 3.877 6.895 9.227 6.895 5.025 0 8.112-2.635 8.112-6.137-.11-7.486-10.954-5.213-10.954-8.429zm24.572-6.133c-5.861 0-10.414 3.973-10.414 10.359s4.451 10.359 10.342 10.359 10.485-3.973 10.485-10.359-4.527-10.359-10.414-10.359zm-.076 15.376c-2.222 0-4.092-1.625-4.092-5.017s1.953-5.017 4.168-5.017c2.154 0 4.164 1.572 4.164 5.017s-2.048 5.017-4.24 5.017zM91.261 6.725h-6.14v26.711h6.14V6.725zm8.465-2.202c-2.192 0-3.661 1.481-3.661 3.359s1.47 3.321 3.661 3.321 3.627-1.481 3.627-3.321-1.473-3.359-3.627-3.359zm3.053 8.772h-6.14v20.137h6.14V13.295zm14.233 4.976c1.689 0 2.695.905 3.193 2.311h6.537c-1.043-4.799-4.602-7.577-9.624-7.577-5.887 0-10.051 4.007-10.051 10.359s4.164 10.359 10.051 10.359c5.029 0 8.596-2.925 9.624-7.581h-6.537c-.536 1.482-1.504 2.311-3.193 2.311-2.191 0-3.695-1.734-3.695-5.108s1.504-5.074 3.695-5.074zm27.346-4.976l-4.595 12.594-4.633-12.594h-6.858l8.151 19.455L131.828 43h6.605L151 13.295h-6.642z" fill="#e5f1ff"/><g clip-path="url(#D)"><path d="M15.561.027s-6.958 3.221-.761 9.448 14.235 7.357 15.876 14.829-2.879 15.959-15.019 16.697c0 0 8.494-3.976-2.37-11.907C4.793 23.498-1.185 19.59.2 11.314S11.127-.34 15.561.027z" fill="url(#A)"/><path d="M23.958 2.328c-1.396-.95-3.936-1.65-5.465-1.108-.478.169-.861.529-1.153.972-.666 1.01-.745 2.328-.214 3.42a3.9 3.9 0 0 0 .407.668c.36.467.921.942 1.425 1.319l7.252 4.963c1.307.869 3.728 2.742 4.419 3.54 0-.001 2.372-7.62-6.67-13.773z" fill="url(#B)"/><path d="M7.414 38.676c1.397.95 3.935 1.648 5.462 1.104.477-.171.861-.53 1.151-.974.665-1.012.742-2.331.211-3.424-.124-.254-.265-.483-.407-.668-.359-.467-.921-.941-1.425-1.318l-7.252-4.959c-1.307-.868-3.729-2.74-4.42-3.537.001-.001-2.362 7.627 6.68 13.776z" fill="url(#C)"/></g><defs><linearGradient id="A" x1="-2.416" y1="0" x2="30.854" y2="38.173" gradientUnits="userSpaceOnUse"><stop stop-color="#fff"/><stop offset="1" stop-color="#bddcff"/></linearGradient><linearGradient id="B" x1="28.862" y1="2.672" x2="20.451" y2="12.175" gradientUnits="userSpaceOnUse"><stop stop-color="#b3d3fc"/><stop offset="1" stop-color="#b0c8f7"/></linearGradient><linearGradient id="C" x1="15.376" y1="28.443" x2="1.499" y2="39.563" gradientUnits="userSpaceOnUse"><stop stop-color="#afc8f7"/><stop offset="1" stop-color="#b4d5fd"/></linearGradient><clipPath id="D"><path fill="#fff" d="M0 0h31v41H0z"/></clipPath></defs></svg>