<svg width="74" height="26" viewBox="0 0 74 26" fill="none" xmlns="http://www.w3.org/2000/svg">
<g clip-path="url(#clip0_1545_51145)">
<path d="M15.3041 0.000110193C15.3041 8.26451e-05 15.3041 2.75484e-05 15.3041 2.75484e-05L13.2719 0C13.2719 0 13.2719 5.50967e-05 13.2719 0.000110193C13.2719 3.0093 10.8076 5.45424 7.74826 5.5046C7.71617 5.50422 7.6842 5.50342 7.65203 5.50342C7.61986 5.50342 7.58789 5.50422 7.55581 5.5046C4.49647 5.45422 2.03218 3.00927 2.03218 0.000110193C2.03218 8.26451e-05 2.03218 2.75484e-05 2.03218 2.75484e-05L0 0C0 0 0 5.50967e-05 0 0.000110193C0 2.77941 1.54388 5.2054 3.83726 6.50003C1.54388 7.79467 0 10.2207 0 13C0 15.7793 1.54391 18.2053 3.83729 19.5C1.54391 20.7945 0 23.2206 0 25.9999C0 25.9999 0 26 0 26H2.03218C2.03218 26 2.03218 25.9999 2.03218 25.9999C2.03218 22.9901 4.49754 20.5447 7.55781 20.4954C7.58921 20.4957 7.62054 20.4965 7.65206 20.4965C7.68358 20.4965 7.71488 20.4957 7.74632 20.4954C10.8066 20.5447 13.2719 22.9901 13.2719 25.9999C13.2719 25.9999 13.2719 26 13.2719 26H15.3041C15.3041 26 15.3041 25.9999 15.3041 25.9999C15.3041 23.2206 13.7602 20.7945 11.4668 19.4999C13.7602 18.2053 15.3041 15.7793 15.3041 13C15.3041 10.2206 13.7602 7.79464 11.4669 6.50001C13.7602 5.2054 15.3041 2.77941 15.3041 0.000110193ZM13.2719 13C13.2719 16.0098 10.8066 18.4552 7.74629 18.5045C7.71488 18.5041 7.68356 18.5033 7.65203 18.5033C7.62051 18.5033 7.58921 18.5041 7.55778 18.5045C4.49751 18.4552 2.03215 16.0098 2.03215 13C2.03215 9.9908 4.49647 7.54585 7.55581 7.49549C7.58789 7.49588 7.61986 7.49668 7.65203 7.49668C7.6842 7.49668 7.71617 7.49588 7.74826 7.49549C10.8076 7.54585 13.2719 9.99077 13.2719 13Z" fill="currentColor"/>
<path d="M25.3421 13.0273C28.7174 13.0273 30.0033 14.6218 30.0033 16.8067C30.0033 18.9915 28.7174 20.586 25.3421 20.586H22.2679V25.8219H20.9219V13.0273H25.3421ZM22.2679 14.2477V19.3655H25.3421C27.8133 19.3655 28.6573 18.342 28.6573 16.8067C28.6573 15.2517 27.8133 14.2477 25.3421 14.2477H22.2679Z" fill="white"/>
<path d="M39.3455 21.4149H32.7552V21.4936C32.7552 23.836 33.9809 24.8202 35.8294 24.8202C37.0547 24.8202 38.0796 24.4068 38.7428 23.9344L39.2248 25.017C38.2805 25.6469 37.1153 26.0012 35.8294 26.0012C33.197 26.0012 31.4492 24.5839 31.4492 21.2181V20.5882C31.4492 17.1828 33.0367 15.7852 35.3871 15.7852C37.738 15.7852 39.3454 17.1828 39.3454 20.5882V21.4149H39.3455ZM32.7552 20.3914H38.0395V20.2731C38.0395 17.8718 36.9545 16.9664 35.3871 16.9664C33.8402 16.9664 32.7552 17.8719 32.7552 20.2731V20.3914H32.7552Z" fill="white"/>
<path d="M41.333 12.043H42.5989V22.9478C42.5989 24.3455 43.1213 24.8179 43.8848 24.8179C44.4072 24.8179 44.7084 24.68 45.0299 24.4635L45.4922 25.5462C45.0299 25.8414 44.4874 25.9989 43.7641 25.9989C42.398 25.9989 41.333 25.1918 41.333 22.9282V12.043Z" fill="white"/>
<path d="M54.0505 21.4149H47.4603V21.4936C47.4603 23.836 48.686 24.8202 50.5345 24.8202C51.7598 24.8202 52.7847 24.4068 53.4479 23.9344L53.9298 25.017C52.9855 25.6469 51.8204 26.0012 50.5345 26.0012C47.9021 26.0012 46.1543 24.5839 46.1543 21.2181V20.5882C46.1543 17.1828 47.7417 15.7852 50.0922 15.7852C52.443 15.7852 54.0505 17.1828 54.0505 20.5882V21.4149H54.0505ZM47.4603 20.3914H52.7446V20.2731C52.7446 17.8718 51.6596 16.9664 50.0922 16.9664C48.5453 16.9664 47.4602 17.8719 47.4602 20.2731V20.3914H47.4603Z" fill="white"/>
<path d="M55.9385 16.5726C56.5416 16.2182 57.6667 15.7852 59.0528 15.7852C59.8163 15.7852 60.4995 15.923 61.042 16.1986L60.4995 17.3008C60.1178 17.0844 59.6559 16.9664 59.0528 16.9664C58.2292 16.9664 57.5861 17.2221 57.2043 17.3796V25.8241H55.9385V16.5726H55.9385Z" fill="white"/>
<path d="M62.95 11.9648C63.432 11.9648 63.7936 12.3192 63.7936 12.8112C63.7936 13.2639 63.432 13.638 62.95 13.638C62.4677 13.638 62.0859 13.2639 62.0859 12.8112C62.0859 12.3192 62.4676 11.9648 62.95 11.9648ZM62.3068 15.9804H63.5727V25.8223H62.3068V15.9804Z" fill="white"/>
<path d="M66.124 16.5726C66.8073 16.1986 67.9524 15.7852 69.6401 15.7852C72.1718 15.7852 74.0002 17.1632 74.0002 20.6274V25.8241H72.7344V20.5685C72.7344 17.8718 71.4685 16.9664 69.58 16.9664C68.5551 16.9664 67.9324 17.1632 67.3899 17.3796V25.8241H66.124V16.5726Z" fill="white"/>
<path d="M20.9209 0H22.1334L24.6625 4.1892L27.1786 0H28.391V8.30175H27.2699V1.94131L24.6625 6.32207L22.0421 1.94131V8.30173H20.9209V0H20.9209Z" fill="white"/>
<path d="M30.0332 0H31.1022V1.91577H33.7096V2.91197H31.1022V6.11775C31.1022 6.94792 31.4282 7.29274 31.9366 7.38216C32.1321 7.4077 32.3537 7.4077 32.5624 7.38216C33.0708 7.34384 33.5141 7.16502 33.8269 6.87128C33.9443 7.17781 34.0616 7.47156 34.192 7.77809C33.6705 8.19955 32.9926 8.41668 32.2365 8.41668C30.9719 8.41668 30.0332 7.81638 30.0332 6.11775V0H30.0332Z" fill="white"/>
</g>
<defs>
<clipPath id="clip0_1545_51145">
<rect width="74" height="26" fill="white"/>
</clipPath>
</defs>
</svg>
